<?xml version="1.0" encoding="utf-8"?>
<!-- Svg Vector Icons : http://www.onlinewebfonts.com/icon -->
<!DOCTYPE svg PUBLIC "-//W3C//DTD SVG 1.1//EN" "http://www.w3.org/Graphics/SVG/1.1/DTD/svg11.dtd">
<svg version="1.1" xmlns="http://www.w3.org/2000/svg" xmlns:xlink="http://www.w3.org/1999/xlink" x="0px" y="0px" viewBox="0 0 1000 1000" enable-background="new 0 0 1000 1000" xml:space="preserve">
<metadata> Svg Vector Icons : http://www.onlinewebfonts.com/icon </metadata>
<g><g><g><path d="M314.5,676.3V393.5c0-45.4-36.3-82.2-81.7-82.2c-45.4,0-81.7,36.8-81.7,82.2v282.8c0,45.4,36.3,82.2,81.7,82.2C278.2,758.5,314.5,721.7,314.5,676.3z"/><path d="M581,676.3V393.5c0-45.4-36.9-82.2-82.3-82.2c-45.4,0-82.3,36.8-82.3,82.2v282.8c0,45.4,36.9,82.2,82.3,82.2C544.1,758.5,581,721.7,581,676.3z"/><path d="M849,676.3V393.5c0-45.4-37.6-82.2-83-82.2c-45.4,0-83,36.8-83,82.2v282.8c0,45.4,37.6,82.2,83,82.2C811.4,758.5,849,721.7,849,676.3z"/><path d="M890.4,824H109.5c-45.4,0-82.1,37.6-82.1,83c0,45.4,36.8,83,82.1,83h780.9c45.4,0,82.2-37.6,82.2-83C972.6,861.6,935.8,824,890.4,824z"/><path d="M957.8,191.8L531.3,16.2c-20.1-8.3-42.5-8.3-62.6,0L41.8,191.9c-11.7,5-18.2,17.1-15.7,29.5c2.5,12.4,13.5,21,26.1,21h895.5c12.8,0,23.7-8.7,26.1-21.2C976.4,208.8,969.6,196.6,957.8,191.8z"/></g></g><g></g><g></g><g></g><g></g><g></g><g></g><g></g><g></g><g></g><g></g><g></g><g></g><g></g><g></g><g></g></g>
</svg>